<?xml version="1.0" encoding="UTF-8"?>
<svg width="650pt" height="610pt" version="1.1" viewBox="0 0 650 400" xmlns="http://www.w3.org/2000/svg" xmlns:xlink="http://www.w3.org/1999/xlink">
 <defs>
  <symbol id="w" overflow="visible">
   <path d="m18.766-1.125c-0.96875 0.5-1.9805 0.875-3.0312 1.125-1.043 0.25781-2.1367 0.39062-3.2812 0.39062-3.3984 0-6.0898-0.94531-8.0781-2.8438-1.9922-1.9062-2.9844-4.4844-2.9844-7.7344 0-3.2578 0.99219-5.8359 2.9844-7.7344 1.9883-1.9062 4.6797-2.8594 8.0781-2.8594 1.1445 0 2.2383 0.13281 3.2812 0.39062 1.0508 0.25 2.0625 0.625 3.0312 1.125v4.2188c-0.98047-0.65625-1.9453-1.1406-2.8906-1.4531-0.94922-0.3125-1.9492-0.46875-3-0.46875-1.875 0-3.3516 0.60547-4.4219 1.8125-1.0742 1.1992-1.6094 2.8555-1.6094 4.9688 0 2.1055 0.53516 3.7617 1.6094 4.9688 1.0703 1.1992 2.5469 1.7969 4.4219 1.7969 1.0508 0 2.0508-0.14844 3-0.45312 0.94531-0.3125 1.9102-0.80078 2.8906-1.4688z"/>
  </symbol>
  <symbol id="a" overflow="visible">
   <path d="m13.734-11.141c-0.4375-0.19531-0.87109-0.34375-1.2969-0.4375-0.41797-0.10156-0.83984-0.15625-1.2656-0.15625-1.2617 0-2.2305 0.40625-2.9062 1.2188-0.67969 0.80469-1.0156 1.9531-1.0156 3.4531v7.0625h-4.8906v-15.312h4.8906v2.5156c0.625-1 1.3438-1.7266 2.1562-2.1875 0.82031-0.46875 1.8008-0.70312 2.9375-0.70312 0.16406 0 0.34375 0.011719 0.53125 0.03125 0.19531 0.011719 0.47656 0.039062 0.84375 0.078125z"/>
  </symbol>
  <symbol id="b" overflow="visible">
   <path d="m17.641-7.7031v1.4062h-11.453c0.125 1.1484 0.53906 2.0078 1.25 2.5781 0.70703 0.57422 1.7031 0.85938 2.9844 0.85938 1.0312 0 2.082-0.14844 3.1562-0.45312 1.082-0.3125 2.1914-0.77344 3.3281-1.3906v3.7656c-1.1562 0.4375-2.3125 0.76562-3.4688 0.98438-1.1562 0.22656-2.3125 0.34375-3.4688 0.34375-2.7734 0-4.9297-0.70312-6.4688-2.1094-1.5312-1.4062-2.2969-3.3789-2.2969-5.9219 0-2.5 0.75391-4.4609 2.2656-5.8906 1.5078-1.4375 3.582-2.1562 6.2188-2.1562 2.4062 0 4.332 0.73047 5.7812 2.1875 1.4453 1.4492 2.1719 3.3828 2.1719 5.7969zm-5.0312-1.625c0-0.92578-0.27344-1.6719-0.8125-2.2344-0.54297-0.57031-1.25-0.85938-2.125-0.85938-0.94922 0-1.7188 0.26562-2.3125 0.79688s-0.96484 1.2969-1.1094 2.2969z"/>
  </symbol>
  <symbol id="e" overflow="visible">
   <path d="m9.2188-6.8906c-1.0234 0-1.793 0.17188-2.3125 0.51562-0.51172 0.34375-0.76562 0.85547-0.76562 1.5312 0 0.625 0.20703 1.1172 0.625 1.4688 0.41406 0.34375 0.98828 0.51562 1.7188 0.51562 0.92578 0 1.7031-0.32812 2.3281-0.98438 0.63281-0.66406 0.95312-1.4922 0.95312-2.4844v-0.5625zm7.4688-1.8438v8.7344h-4.9219v-2.2656c-0.65625 0.92969-1.3984 1.6055-2.2188 2.0312-0.82422 0.41406-1.8242 0.625-3 0.625-1.5859 0-2.8711-0.45703-3.8594-1.375-0.99219-0.92578-1.4844-2.1289-1.4844-3.6094 0-1.7891 0.61328-3.1016 1.8438-3.9375 1.2383-0.84375 3.1797-1.2656 5.8281-1.2656h2.8906v-0.39062c0-0.76953-0.30859-1.332-0.92188-1.6875-0.61719-0.36328-1.5703-0.54688-2.8594-0.54688-1.0547 0-2.0312 0.10547-2.9375 0.3125-0.89844 0.21094-1.7305 0.52344-2.5 0.9375v-3.7344c1.0391-0.25 2.0859-0.44141 3.1406-0.57812 1.0625-0.13281 2.125-0.20312 3.1875-0.20312 2.7578 0 4.75 0.54688 5.9688 1.6406 1.2266 1.0859 1.8438 2.8555 1.8438 5.3125z"/>
  </symbol>
  <symbol id="d" overflow="visible">
   <path d="m7.7031-19.656v4.3438h5.0469v3.5h-5.0469v6.5c0 0.71094 0.14062 1.1875 0.42188 1.4375s0.83594 0.375 1.6719 0.375h2.5156v3.5h-4.1875c-1.9375 0-3.3125-0.39844-4.125-1.2031-0.80469-0.8125-1.2031-2.1797-1.2031-4.1094v-6.5h-2.4219v-3.5h2.4219v-4.3438z"/>
  </symbol>
  <symbol id="j" overflow="visible">
   <path d="m12.766-13.078v-8.2031h4.9219v21.281h-4.9219v-2.2188c-0.66797 0.90625-1.4062 1.5703-2.2188 1.9844s-1.7578 0.625-2.8281 0.625c-1.8867 0-3.4336-0.75-4.6406-2.25-1.2109-1.5-1.8125-3.4258-1.8125-5.7812 0-2.3633 0.60156-4.2969 1.8125-5.7969 1.207-1.5 2.7539-2.25 4.6406-2.25 1.0625 0 2 0.21484 2.8125 0.64062 0.82031 0.42969 1.5664 1.0859 2.2344 1.9688zm-3.2188 9.9219c1.0391 0 1.8359-0.37891 2.3906-1.1406 0.55078-0.76953 0.82812-1.8828 0.82812-3.3438 0-1.457-0.27734-2.5664-0.82812-3.3281-0.55469-0.76953-1.3516-1.1562-2.3906-1.1562-1.043 0-1.8398 0.38672-2.3906 1.1562-0.55469 0.76172-0.82812 1.8711-0.82812 3.3281 0 1.4609 0.27344 2.5742 0.82812 3.3438 0.55078 0.76172 1.3477 1.1406 2.3906 1.1406z"/>
  </symbol>
  <symbol id="f" overflow="visible">
   <path d="m10.5-3.1562c1.0508 0 1.8516-0.37891 2.4062-1.1406 0.55078-0.76953 0.82812-1.8828 0.82812-3.3438 0-1.457-0.27734-2.5664-0.82812-3.3281-0.55469-0.76953-1.3555-1.1562-2.4062-1.1562-1.0547 0-1.8594 0.38672-2.4219 1.1562-0.55469 0.77344-0.82812 1.8828-0.82812 3.3281 0 1.4492 0.27344 2.5586 0.82812 3.3281 0.5625 0.77344 1.3672 1.1562 2.4219 1.1562zm-3.25-9.9219c0.67578-0.88281 1.4219-1.5391 2.2344-1.9688 0.82031-0.42578 1.7656-0.64062 2.8281-0.64062 1.8945 0 3.4453 0.75 4.6562 2.25 1.207 1.5 1.8125 3.4336 1.8125 5.7969 0 2.3555-0.60547 4.2812-1.8125 5.7812-1.2109 1.5-2.7617 2.25-4.6562 2.25-1.0625 0-2.0078-0.21094-2.8281-0.625-0.8125-0.42578-1.5586-1.0859-2.2344-1.9844v2.2188h-4.8906v-21.281h4.8906z"/>
  </symbol>
  <symbol id="i" overflow="visible">
   <path d="m0.34375-15.312h4.8906l4.125 10.391 3.5-10.391h4.8906l-6.4375 16.766c-0.64844 1.6953-1.4023 2.8828-2.2656 3.5625-0.86719 0.6875-2 1.0312-3.4062 1.0312h-2.8438v-3.2188h1.5312c0.83203 0 1.4375-0.13672 1.8125-0.40625 0.38281-0.26172 0.67969-0.73047 0.89062-1.4062l0.14062-0.42188z"/>
  </symbol>
  <symbol id="h" overflow="visible">
   <path d="m2.5781-20.406h5.25v16.422h9.25v3.9844h-14.5z"/>
  </symbol>
  <symbol id="v" overflow="visible">
   <path d="m2.3594-21.281h4.8906v21.281h-4.8906z"/>
  </symbol>
  <symbol id="g" overflow="visible">
   <path d="m2.1875-5.9688v-9.3438h4.9219v1.5312c0 0.83594-0.007813 1.875-0.015625 3.125-0.011719 1.25-0.015625 2.0859-0.015625 2.5 0 1.2422 0.03125 2.1328 0.09375 2.6719 0.070313 0.54297 0.17969 0.93359 0.32812 1.1719 0.20703 0.32422 0.47266 0.57422 0.79688 0.75 0.32031 0.16797 0.69141 0.25 1.1094 0.25 1.0195 0 1.8203-0.39062 2.4062-1.1719 0.58203-0.78125 0.875-1.8672 0.875-3.2656v-7.5625h4.8906v15.312h-4.8906v-2.2188c-0.74219 0.89844-1.5234 1.5586-2.3438 1.9844-0.82422 0.41406-1.7344 0.625-2.7344 0.625-1.7617 0-3.1055-0.53906-4.0312-1.625-0.92969-1.082-1.3906-2.6602-1.3906-4.7344z"/>
  </symbol>
  <symbol id="u" overflow="visible">
   <path d="m2.3594-15.312h4.8906v15.312h-4.8906zm0-5.9688h4.8906v4h-4.8906z"/>
  </symbol>
  <symbol id="t" overflow="visible">
   <path d="m14.312-14.828v3.7188c-1.043-0.4375-2.0547-0.76562-3.0312-0.98438-0.98047-0.21875-1.9023-0.32812-2.7656-0.32812-0.92969 0-1.6211 0.11719-2.0781 0.34375-0.44922 0.23047-0.67188 0.58984-0.67188 1.0781 0 0.38672 0.17188 0.68359 0.51562 0.89062 0.34375 0.21094 0.95703 0.36719 1.8438 0.46875l0.85938 0.125c2.5078 0.32422 4.1953 0.85156 5.0625 1.5781 0.86328 0.73047 1.2969 1.8711 1.2969 3.4219 0 1.6367-0.60547 2.8672-1.8125 3.6875-1.1992 0.8125-2.9922 1.2188-5.375 1.2188-1.0234 0-2.0742-0.078125-3.1562-0.23438-1.0742-0.15625-2.1797-0.39453-3.3125-0.71875v-3.7188c0.96875 0.48047 1.9609 0.83984 2.9844 1.0781 1.0312 0.23047 2.0781 0.34375 3.1406 0.34375 0.95703 0 1.6758-0.12891 2.1562-0.39062 0.47656-0.26953 0.71875-0.66406 0.71875-1.1875 0-0.4375-0.16797-0.75781-0.5-0.96875-0.33594-0.21875-0.99609-0.38281-1.9844-0.5l-0.85938-0.10938c-2.1797-0.26953-3.7031-0.77344-4.5781-1.5156-0.875-0.73828-1.3125-1.8594-1.3125-3.3594 0-1.625 0.55078-2.8281 1.6562-3.6094 1.1133-0.78906 2.8203-1.1875 5.125-1.1875 0.89453 0 1.8359 0.074219 2.8281 0.21875 1 0.13672 2.082 0.35156 3.25 0.64062z"/>
  </symbol>
  <symbol id="s" overflow="visible">
   <path d="m2.5781-20.406h5.25v20.406h-5.25z"/>
  </symbol>
  <symbol id="c" overflow="visible">
   <path d="m9.6406-12.188c-1.0859 0-1.9141 0.39062-2.4844 1.1719-0.57422 0.78125-0.85938 1.9062-0.85938 3.375s0.28516 2.5938 0.85938 3.375c0.57031 0.77344 1.3984 1.1562 2.4844 1.1562 1.0625 0 1.875-0.38281 2.4375-1.1562 0.57031-0.78125 0.85938-1.9062 0.85938-3.375s-0.28906-2.5938-0.85938-3.375c-0.5625-0.78125-1.375-1.1719-2.4375-1.1719zm0-3.5c2.6328 0 4.6914 0.71484 6.1719 2.1406 1.4766 1.418 2.2188 3.3867 2.2188 5.9062 0 2.5117-0.74219 4.4805-2.2188 5.9062-1.4805 1.418-3.5391 2.125-6.1719 2.125-2.6484 0-4.7148-0.70703-6.2031-2.125-1.4922-1.4258-2.2344-3.3945-2.2344-5.9062 0-2.5195 0.74219-4.4883 2.2344-5.9062 1.4883-1.4258 3.5547-2.1406 6.2031-2.1406z"/>
  </symbol>
  <symbol id="r" overflow="visible">
   <path d="m12.422-21.281v3.2188h-2.7031c-0.6875 0-1.1719 0.125-1.4531 0.375-0.27344 0.25-0.40625 0.6875-0.40625 1.3125v1.0625h4.1875v3.5h-4.1875v11.812h-4.8906v-11.812h-2.4375v-3.5h2.4375v-1.0625c0-1.6641 0.46094-2.8984 1.3906-3.7031 0.92578-0.80078 2.3672-1.2031 4.3281-1.2031z"/>
  </symbol>
  <symbol id="q" overflow="visible">
   <path d="m16.547-12.766c0.61328-0.94531 1.3477-1.6719 2.2031-2.1719 0.85156-0.5 1.7891-0.75 2.8125-0.75 1.7578 0 3.0977 0.54688 4.0156 1.6406 0.92578 1.0859 1.3906 2.6562 1.3906 4.7188v9.3281h-4.9219v-7.9844-0.35938c0.007813-0.13281 0.015625-0.32031 0.015625-0.5625 0-1.082-0.16406-1.8633-0.48438-2.3438-0.3125-0.48828-0.82422-0.73438-1.5312-0.73438-0.92969 0-1.6484 0.38672-2.1562 1.1562-0.51172 0.76172-0.77344 1.8672-0.78125 3.3125v7.5156h-4.9219v-7.9844c0-1.6953-0.14844-2.7852-0.4375-3.2656-0.29297-0.48828-0.8125-0.73438-1.5625-0.73438-0.9375 0-1.6641 0.38672-2.1719 1.1562-0.51172 0.76172-0.76562 1.8594-0.76562 3.2969v7.5312h-4.9219v-15.312h4.9219v2.2344c0.60156-0.86328 1.2891-1.5156 2.0625-1.9531 0.78125-0.4375 1.6406-0.65625 2.5781-0.65625 1.0625 0 2 0.25781 2.8125 0.76562 0.8125 0.51172 1.4258 1.2305 1.8438 2.1562z"/>
  </symbol>
  <symbol id="p" overflow="visible">
   <path d="m17.75-9.3281v9.3281h-4.9219v-7.1094c0-1.3438-0.03125-2.2656-0.09375-2.7656s-0.16797-0.86719-0.3125-1.1094c-0.1875-0.3125-0.44922-0.55469-0.78125-0.73438-0.32422-0.17578-0.69531-0.26562-1.1094-0.26562-1.0234 0-1.8242 0.39844-2.4062 1.1875-0.58594 0.78125-0.875 1.8711-0.875 3.2656v7.5312h-4.8906v-21.281h4.8906v8.2031c0.73828-0.88281 1.5195-1.5391 2.3438-1.9688 0.83203-0.42578 1.75-0.64062 2.75-0.64062 1.7695 0 3.1133 0.54688 4.0312 1.6406 0.91406 1.0859 1.375 2.6562 1.375 4.7188z"/>
  </symbol>
  <symbol id="o" overflow="visible">
   <path d="m2.5781-20.406h5.875l7.4219 14v-14h4.9844v20.406h-5.875l-7.4219-14v14h-4.9844z"/>
  </symbol>
  <symbol id="n" overflow="visible">
   <path d="m17.75-9.3281v9.3281h-4.9219v-7.1406c0-1.3203-0.03125-2.2344-0.09375-2.7344s-0.16797-0.86719-0.3125-1.1094c-0.1875-0.3125-0.44922-0.55469-0.78125-0.73438-0.32422-0.17578-0.69531-0.26562-1.1094-0.26562-1.0234 0-1.8242 0.39844-2.4062 1.1875-0.58594 0.78125-0.875 1.8711-0.875 3.2656v7.5312h-4.8906v-15.312h4.8906v2.2344c0.73828-0.88281 1.5195-1.5391 2.3438-1.9688 0.83203-0.42578 1.75-0.64062 2.75-0.64062 1.7695 0 3.1133 0.54688 4.0312 1.6406 0.91406 1.0859 1.375 2.6562 1.375 4.7188z"/>
  </symbol>
  <symbol id="m" overflow="visible">
   <path d="m2.5781-20.406h8.7344c2.5938 0 4.582 0.57812 5.9688 1.7344 1.3945 1.1484 2.0938 2.7891 2.0938 4.9219 0 2.1367-0.69922 3.7812-2.0938 4.9375-1.3867 1.1562-3.375 1.7344-5.9688 1.7344h-3.4844v7.0781h-5.25zm5.25 3.8125v5.7031h2.9219c1.0195 0 1.8047-0.25 2.3594-0.75 0.5625-0.5 0.84375-1.2031 0.84375-2.1094 0-0.91406-0.28125-1.6172-0.84375-2.1094-0.55469-0.48828-1.3398-0.73438-2.3594-0.73438z"/>
  </symbol>
  <symbol id="l" overflow="visible">
   <path d="m2.3594-15.312h4.8906v15.031c0 2.0508-0.49609 3.6172-1.4844 4.7031-0.98047 1.082-2.4062 1.625-4.2812 1.625h-2.4219v-3.2188h0.85938c0.92578 0 1.5625-0.21094 1.9062-0.625 0.35156-0.41797 0.53125-1.2461 0.53125-2.4844zm0-5.9688h4.8906v4h-4.8906z"/>
  </symbol>
  <symbol id="k" overflow="visible">
   <path d="m14.719-14.828v3.9844c-0.65625-0.45703-1.3242-0.79688-2-1.0156-0.66797-0.21875-1.3594-0.32812-2.0781-0.32812-1.3672 0-2.4336 0.40234-3.2031 1.2031-0.76172 0.79297-1.1406 1.9062-1.1406 3.3438 0 1.4297 0.37891 2.543 1.1406 3.3438 0.76953 0.79297 1.8359 1.1875 3.2031 1.1875 0.75781 0 1.4844-0.10938 2.1719-0.32812 0.6875-0.22656 1.3203-0.56641 1.9062-1.0156v4c-0.76172 0.28125-1.5391 0.48828-2.3281 0.625-0.78125 0.14453-1.5742 0.21875-2.375 0.21875-2.7617 0-4.9219-0.70703-6.4844-2.125-1.5547-1.4141-2.3281-3.3828-2.3281-5.9062 0-2.5312 0.77344-4.5039 2.3281-5.9219 1.5625-1.4141 3.7227-2.125 6.4844-2.125 0.80078 0 1.5938 0.074219 2.375 0.21875 0.78125 0.13672 1.5547 0.35156 2.3281 0.64062z"/>
  </symbol>
 </defs>
 <g>
  <path fill="#fff" d="m616.62 270.38c-2.3516-2.4453-6.1094-3.2578-9.7383-4.0547-2.2461-0.48828-4.5703-0.99609-5.8672-1.7969-3.1289-1.9375-2.7031-3.4062-1.3789-6.8359 0.81641-2.1016 1.7461-4.4805 0.58203-6.7891-0.76562-1.5195-2.2109-2.5547-4.4297-3.1641-1.7305-0.44141-3.4453 0.67578-4.6523 1.6289-0.023438 0.015624-0.042969 0.035156-0.066407 0.050781-0.53125-0.42969-1.1641-0.94531-1.8047-1.4688-3.707-3.0234-3.707-3.0234-4.1055-3.1289-3.8203-1.4062-9.2305-0.25781-14.195 1.0547-4.1055 1.082-8.1602 1.9805-10.07 1.1406-1.8125-0.80078-0.63281-6.1328 0.23438-10.031 1.2695-5.7188 2.8555-12.836-3.0508-14.633-0.86719-0.25781-1.9531-0.085937-2.5977 0.28516l-0.80078-1.3672c-0.24609-0.42578-0.60547-0.77734-1.0352-1.0234-3.3594-1.9023-7.5781-2.6133-11.648-3.3086-5.0781-0.85547-10.336-1.7461-13.242-4.8945-1.9102-2.0625-2.9023-5.3984-3.9414-8.9375-1.0195-3.4336-2.0664-6.9844-4.1289-9.8164-1.7461-2.3984-4.5117-2.8945-6.7305-3.293-0.54297-0.10156-1.125-0.20312-1.6289-0.33203 0.42578-1.0977 1.2383-2.6836 1.7734-3.7461 1.5273-3.0117 2.4688-4.9453 2.457-6.6133 0-1.5898-0.88672-2.8828-2.3125-3.3711-0.26953-0.089844-0.55469-0.14062-0.82813-0.15234-0.003906 0-4.207-0.11328-6.9336-0.18359 0.066406-0.97266 0.027343-2.207-0.71875-3.3477-1.8125-2.832-5.2422-3.9414-8.5508-5.0195-2.1719-0.70703-4.6367-1.5078-5.5039-2.6094-0.074219-0.089844-1.6562-2.3086 6.2734-12.062 0.59766-0.73828 0.80469-0.98438 0.98438-1.3477 0.99219-1.9414 0.77344-3.5742 0.11328-4.8906 1.0547-0.21094 2.1914-0.67578 2.9609-1.7305 0.75-1.0078 0.95313-2.3008 0.58203-3.6328-1.5234-5.4531-5.5938-9.6992-9.1836-13.441-2.1328-2.2305-4.1562-4.3398-5.4258-6.4414 0.10156-0.92969 0.75-3.1523 1.2812-4.9727 2.0898-7.1172 5.2461-17.875 0.77344-25.168-1.3164-2.168-4.1055-2.5664-7.9805-2.1055-1.9922 0.24219-4.2891 0.38672-5.1016-0.26953-1.3945-1.125-3.0117-2.6133-4.7891-4.2578-6.8281-6.2773-15.309-14.09-23.711-14.09-0.55859 0-1.1016 0.035156-1.625 0.10156-2.1289 0.25781-3.4141 1.7266-4.3555 2.793-0.3125 0.35156-0.78516 0.89062-0.94141 0.97266-0.078125 0.015625-0.24609 0.050781-0.57031 0.050781-0.97266 0-2.1094-0.23047-3.293-0.44141-3.6133-0.65625-7.5273-0.88672-9.8125 0.96484-1.9648 1.5781-4.8906 4.6914-7.9844 7.9844-2.8633 3.0391-7.5703 8.0547-9.2227 9.0391-1.6523-0.089843-2.8516-0.59766-3.6523-1.5586-2.6875-3.1992-1.4492-10.941-0.78516-15.102 0.55859-3.5117 0.86719-5.4492-0.99219-6.6289-5.9062-3.8008-11.016-5.6523-15.617-5.6523-5.6953 0-9.6641 2.7773-13.164 5.2305-2.5352 1.7695-4.9297 3.4492-7.8281 3.9492-0.80469-0.21094-2.0898-3.4844-2.6445-4.8828-0.95703-2.4258-1.8594-4.7148-3.5039-5.957-2.7383-2.082-5.2461-3.0898-7.6445-3.0898-3.3164 0-5.582 1.8867-7.4102 3.4102-1.4844 1.2305-2.4414 1.9883-3.4766 1.9883-1.1641 0-3.375-0.92578-7.2539-5.2539l-1.0234-1.2383c-0.5-0.60547-1.2695-0.93359-2.0547-0.97266-0.75 0.011719-1.5859 0.29297-2.1445 0.84375-0.003906 0.003906-0.49219 0.44922-0.5 0.46094-0.42188 0.42578-0.85156 0.85156-1.332 1.2383-0.003906 0.003906-0.80078 0.62109-0.8125 0.62891-0.51562 0.38672-1.0352 0.77734-1.5469 1.1328l-3.1406 2.0703c-1.0547 0.68359-2.1055 1.3594-3.1367 2.0547l-1.0938 0.77344c-0.5 0.35938-0.98438 0.71094-1.4492 1.0742-0.45312 0.34766-0.86719 0.72266-1.6445 1.418-0.26953 0.23438-0.53906 0.46484-0.82422 0.74609-0.78516 0.78906-1.5195 1.6289-2.1406 2.5273-1.8867 2.7148-4.5352 10.246-7.3086 18.391-0.36328 1.0703-0.68359 2.0117-0.93359 2.7422-0.066406-0.023437-0.12891-0.039062-0.18359-0.0625-0.69922-0.23047-1.4062-0.44922-2.0664-0.53125l-4.5469-0.60547c-0.39062-0.050781-0.78516-0.16406-1.1758-0.26953-1.1641-0.32031-2.6953-0.64844-4.0977-0.34766-1.2031 0.042969-1.4766 0.46484-3.6953 3.9414l-0.0625 0.09375c-0.38672-0.36328-0.78516-0.76562-1.0859-1.0703-1.6875-1.7031-3.2773-3.3164-5.332-3.5117-0.95312-0.085938-1.9023-0.039062-2.6719 0.078125-0.28516 0.039063-0.55469 0.10156-0.95312 0.21094-0.53125 0.125-1.0547 0.27344-1.6289 0.48828-0.23438 0.09375-0.46875 0.20703-0.96484 0.45312-0.40234 0.20703-0.80469 0.42578-1.3438 0.75781l-0.78906 0.55859c-0.37109 0.26953-0.73438 0.56641-1.3789 1.1133l-0.51562 0.46094c-0.37109 0.34766-0.72656 0.71094-1.0859 1.0859l2.0273 1.9336-2.6562-1.2695c-0.42969 0.46875-0.84375 0.95312-1.5625 1.7969l-1.3047 1.5742c-0.84375 1.0312-1.707 2.0703-2.6562 3.1484l-1.1406 1.2422 2 1.9609-2.4297-1.5234-3.1133 2.6445c-0.27344 0.18359-0.55469 0.34766-1.0547 0.63281l-0.68359 0.375c-0.22266 0.11328-0.46484 0.19531-0.96875 0.38672-0.023438 0.003906-0.83984 0.32031-0.86328 0.32422-0.58984 0.16797-1.1992 0.28516-2.1094 0.40234-1.3477 0.22266-2.3398 1.7852-2.3398 3.1523 0 0.21094 0.023438 0.42578 0.074219 0.63281 1.3047 5.6172-0.61719 10.168-2.8398 15.449-1.7422 4.1289-3.543 8.3984-3.832 13.457-0.0625 0.99219 0.28516 1.9375 0.96875 2.6719 1.625 1.7305 4.543 1.8203 9.9805 1.8438 2.2461 0.003906 6.0273 0.015625 8.0469 0.45312-1.6641 0.98438-3.8594 2.2852-3.8633 2.3086-0.44922 0.19531-0.82812 0.50391-1.1211 0.89453-1.1016 1.4961-1.2109 3.6523-1.3203 5.9414-0.042969 0.88672-0.11328 2.2852-0.27344 2.9609-0.86719 0.29688-4.1367-0.054687-7.0391-0.64453-4.5625-0.91797-9.2773-1.4219-11.859 0.57031-2.8008 2.1562-3.3477 6.1133-3.875 9.9453-0.32031 2.3086-0.71094 5.1758-1.6055 6.1367-2.3398 2.5039-4.2266 2.9844-6.6211 3.6016-5.4609 1.3984-10.125 3.4375-16.223 15.629-1.7695 3.5-0.22266 8.3711 1.2773 13.082 0.89062 2.793 1.8945 5.9648 1.6797 7.582-0.29688 2.2383-2.1914 4.6484-4.1953 7.1953-3.1758 4.043-7.1328 9.0781-6.1992 15.855 0.089844 0.64453 0.32031 1.1406 0.66797 1.5508-2.5078-0.73828-4.8711 0.81641-6.6406 2.207-0.89453 0.69922-1.9102 1.5-2.7227 1.5469-0.53125 0-1.0977-0.089844-1.6641-0.16797-2.75-0.37891-5.2266-0.13281-6.7656 1.4297-1.9922 2.0234-2.2734 4.6484-2.5195 6.9609-0.32031 3.0078-0.62891 4.3164-2.3906 5.1875-1.0078 0.49219-3.8867 0.53906-6.1992 0.57031-4.582 0.0625-8.9023 0.125-11.16 2.6211-2.0312 2.2188-0.63281 5.2539 0.59766 7.9336 0.46484 1.0039 1.2539 2.7227 1.5391 3.4883-0.042969-0.011718-0.089844-0.023437-0.12891-0.035156-0.62109-0.16406-1.2422-0.3125-1.7852-0.34766l-3.7344-0.29688c-0.29297-0.027344-0.58984-0.10156-0.88672-0.16406-1.1758-0.26172-2.8164-0.46484-4.1211 0.050782-3.0469 1.1797-5.0234 3.9688-6.9375 6.668-1.457 2.0508-2.957 4.1719-4.4688 4.7305-1.9219 0.69531-3.3672-0.98047-5.168-2.9102-2.2695-2.418-5.1875-5.1875-9-4.082-1.8555 0.55469-2.6328 2.1172-3.1016 3.0469-0.10547 0.20312-0.20312 0.40234-0.003906 0.35938-1.5273 0.78516-9.1172 1.8711-18.004 1.8711-8.6016 0-11.871-1.0547-12.395-1.4492-0.90625-0.78906-2.2109-0.90234-3.2383-0.30859-1.0352 0.59766-1.5742 1.7852-1.3438 2.957 1.7461 8.9336 6.6289 22.52 12.273 38.258 9.75 27.172 21.879 60.977 17.578 73.125-1.1367 3.168-7.5703 6.125-12.266 8.2812-2.7109 1.25-5.2734 2.4258-7.1055 3.668-9.6328 6.5977-14.168 14.656-19.422 23.996l-1.2812 2.2773c-1.25 2.1836-2.2617 5.6289-1.3828 8.7539 0.56641 1.9883 1.8242 3.5742 3.6523 4.5703 0.71094 0.39062 1.5586 0.45312 2.3086 0.17188l3.8086-1.3945c3.0352 1.1875 11.234 5.6602 14.824 8.293 0.42188 0.30859 0.75 0.56641 0.93359 0.74609 2.5469 2.6484 4.043 21.777 2.5977 26.555-0.52734 1.7266-1.3984 3.3047-2.3242 4.9844-2.1836 3.9648-4.6602 8.4609-2.7031 15.398 0.32422 1.1797 0.85156 2.3867 1.6523 3.7812 0.035156 0.054688 0.066406 0.11328 0.10547 0.16406 0.62109 1.0625 1.3438 2.1172 2.0938 3.1484 0.53125 0.73438 1.3828 1.1523 2.2695 1.1523 0.21875 0 0.4375-0.027344 0.65625-0.078125l0.20312-0.10547c1.9375-0.085938 3.332-0.76172 4.1367-2.0039 1.2656-1.9531 0.40234-4.1289-0.28516-5.875-0.29688-0.68359-0.875-2.1289-0.76953-2.5273 0-0.003906 0.32031-0.37891 1.7344-0.68359 4.3359-0.95703 7.8789 1.3477 10.465 3.2031 1.5586 1.1133 2.9062 2.082 4.4688 2.2773 7.7109 0.93359 14.414-10.27 20.137-20.16 2.0898-3.6133 4.9492-8.5508 6.082-9.2383 2.0234-0.875 5.7344-0.88672 9.6211-0.66797 3.4883 0.19141 6.7969 0.24609 9.2305-0.27344 4.1758-0.91797 8.2227-2.8164 12.137-4.6484 4.5742-2.1523 8.8984-4.1758 13.195-4.6328 3.4336-0.35938 7.2031 0.54688 11.246 1.5195 3.2578 0.77734 6.6289 1.5781 9.9219 1.707l0.99609 0.015625c3.9531 0 8.3828-0.77344 12.668-1.5195 6.418-1.1211 13.602-1.9531 17.383-0.99609 0.17188 0.12891 0.52734 0.6875 0.75781 1.0586 0.66797 1.0625 1.5781 2.5312 3.3164 3.2656 4.1289 1.6953 42.129 7.1719 46.805 7.3711 2.2578 0 4.3242-0.73438 6.3281-1.4453 1.6289-0.58203 3.1914-1.0625 4.6797-1.1133 0.71875 0.027344 1.2031 0.09375 1.5234 0.15234-0.035157 0.17188-0.078126 0.35938-0.11328 0.50781-0.40234 1.7461-1.0703 4.6797 1.3203 7.3242 0.93359 1.0352 2.4297 1.4492 3.793 1.1992-0.56641 1.4297-0.78906 3.2031 0.76172 4.7266 1.1875 1.1797 2.7539 1.8047 4.5234 1.8047 3.3477 0 6.8828-2.2188 9.7266-3.9922 0.91797-0.57812 2.1719-1.3594 2.5078-1.4727 2.082-0.38672 3.8711-0.58203 5.3086-0.58203 2.6875 0 3.2539 0.65625 3.3086 0.73438 0.50391 0.67578-0.21875 3.0781-0.60547 4.3633-0.65625 2.1602-1.3945 4.6016 0.81641 6.4844l4.1953 2.7109c0.83984 0.53906 1.9023 0.59375 2.8008 0.13281 4-2.0508 4.0898-6.7188 4.1484-10.137 0.023437-1.2812 0.066406-3.6797 0.73828-4.168 0.76172 0 2.1328 0.83594 3.3438 1.5664 2.0391 1.2422 4.3555 2.6484 7.1289 2.6484 1.5195 0 2.9805-0.42969 4.3516-1.293 0.78906-0.50391 1.3281-1.2812 3.0742-3.8984 0.65625-0.99219 1.8477-2.7734 2.9102-4.1953 1.332 4.2188 3.3984 10 8.4727 10h0.011719c2.6992-0.14062 4.7031-1.9531 6.4688-3.5547 2.0938-1.8984 3.5664-3.3359 5.9805-1.5781 0.88672 0.63281 1.1992 1.8359 1.6367 3.7461 0.60547 2.6484 1.4336 6.2773 5.4336 8.2305 0.20703 0.10547 0.46094 0.27344 0.73438 0.44141 1.1133 0.70703 2.2734 1.4336 3.6055 1.4336 1.6172 0 2.918-1.0742 3.2461-2.7617 0.074218-0.41406 0.074218-0.41406-0.3125-3.8516-0.11328-0.99609-0.22266-1.9922-0.28516-2.5547 1.2266-3.8477 11.211-14.391 16.633-14.391 0.37891 0 0.6875 0.066406 0.94531 0.19531 2.4141 1.2695 3.8203 6.043 5.0508 10.258 1.7734 6.0586 3.6172 12.32 9.2344 13.41 4.7617 0.87891 7.9258-3.4375 10.91-7.582 2.3242-3.2266 4.9609-6.8828 7.6992-6.9883 0.61719 0 2.3789 1.2812 3.3203 1.9648 2.043 1.4961 4.1602 3.0352 6.5977 3.0352 0.14453 0 0.71094-0.042969 0.85156-0.074219 3.207-0.51562 5.6992-2.25 8.1094-3.9297 3.1602-2.207 5.8789-4 9.6641-3.1406 3.207 0.71094 6.043 4.5625 8.7812 8.293 4.0547 5.5156 8.7344 11.848 16.492 10.473 0.8125-0.15234 1.5195-0.64844 1.9219-1.3672l3.2266-5.6406c3.6797-6.4727-1.457-14.207-5.5781-20.418-1.3555-2.0391-2.6367-3.9648-3.3281-5.4531-0.79688-1.6953 0.92969-4.6602 2.4531-7.2812 1.1094-1.9141 2.168-3.7188 2.6484-5.5508 0.050781-0.19141 0.085938-0.38672 0.089844-0.58984l0.33984-7.3633c0.011718-0.47656-0.011719-0.96875-0.039063-1.457-0.035156-0.5-0.066406-1.1211 0.015625-1.3438 1.0703-2.9297 9.7383-12.246 12.996-15.754 3.1016-3.3359 3.1602-3.3945 3.125-4.5703-0.015625-1.4453-0.25391-2.5352-0.61719-3.375 0.48047 0.089844 0.99219 0.16797 1.8867 0.23438l6.9648 0.51562c0.27344 0.015625 0.54688 0.09375 0.82422 0.15625 1.1641 0.25781 3.4102 0.28125 3.832-0.035156 0.88672-0.26172 0.88672-0.26172 4.7695-5.0234 0.82422-1.0195 1.6016-1.9727 2.0234-2.4805 2.9219-1.3086 9.0898-1.3086 11.473-1.3086l7.1289 0.066406c1.4883 0 2.832-0.035156 3.9609-0.125 0.77734-0.0625 1.4883-0.44141 1.9727-1.0547 0.48828-0.60938 0.69531-1.3945 0.57812-2.1602l-0.92969-6.1133c-0.054687-0.37109-0.18359-0.73438-0.38672-1.0547-1.6406-2.6445-4.4922-4.5469-7.2539-6.3828-2.2969-1.5273-4.6602-3.1094-5.6719-4.7539 0.10156-0.12891 0.21094-0.27344 0.30078-0.38672 0.76172-0.94531 1.8984-2.3867 1.7734-4.2891-0.15234-2.6484-1.7656-5.1406-3.332-7.5469-0.84375-1.3008-1.9336-2.9727-2.3086-4.3516 0.48047-0.42188 1.0703-0.92969 1.6055-1.3984 2.3203-2.0117 2.5586-2.2227 2.5586-3.5859-0.078126-2.7773-2.6953-4.8789-5.7344-7.3086-1.3398-1.0703-3.9492-3.1602-4.6367-4.3438 0.21094-0.089844 0.44922-0.17969 0.63281-0.25391 1.4102-0.54688 3.3438-1.2891 4.2188-3.3164 2.0781-4.793-3.8008-9.7031-13.562-17.316-3.2891-2.5664-8.2617-6.4414-8.7852-7.3359 0.11719-0.74609 1.5977-2.918 2.3984-4.082 1.3203-1.9414 2.4648-3.6172 2.8008-5.1055 0.4375-1.7734 0.18359-3.4375-0.035157-4.8984-0.11719-0.77344-0.22266-1.5195-0.20312-2.1211 2.1211-0.92578 9.0039-2.043 14.254-2.043 1.5195 0 2.2109 0.078125 2.2891 0.09375 0.23047 0.29297 0.50391 1.2812 0.66797 1.8867 0.46094 1.6641 1.082 3.9375 3.1523 5.2539 1.2148 0.76172 2.8125 0.83594 4.4648 0.58203 0.29688-0.050782 0.58984-0.10547 0.82422-0.10547 1.1523 0.015625 2.625 0.16797 4.2109 0.33594 4.5078 0.46094 9.4648 0.70703 12.164-0.32422 8.1367-3.1406 11.574-10.652 14.348-16.684 1.5117-3.3086 2.9414-6.4297 4.793-8.1758 0.48047-0.44922 2.457-1.0977 3.7812-1.5234 3.0078-0.99219 6.1211-2.0039 7.3906-4.4141 0.96875-1.8164-0.68359-12.34-2.1797-13.879zm-407.21-29.617c3.2031 0.93359 9.1602 2.6758 10.375 5.7344 0.5 1.2539 0.15625 2.8945-0.79688 4.6328-0.11719 0.078125-0.5 0.22266-0.75 0.3125-0.53125 0.20312-1.0586 0.41016-1.5352 0.67578-4.168 2.3516-5.8633 2.6094-6.2539 2.8242-0.32422-0.55469-0.25391-2.8008-0.21094-4.1367 0.10547-3.4258 0.25391-7.9648-2.7539-10.629 0.58203 0.19141 1.2266 0.38281 1.9258 0.58594zm400.26 42.605c-2.3086 0.76172-4.4844 1.4727-5.875 2.7773-2.6562 2.4922-4.3047 6.0977-6.0469 9.918-2.5859 5.6406-5.2539 11.473-11.266 13.789-0.48828 0.18359-1.4688 0.41016-3.3672 0.41016-1.9805 0-4.1992-0.23047-6.2227-0.42969-1.7578-0.17969-3.3945-0.33984-4.7305-0.35938-0.55469 0-1.1367 0.078125-1.7188 0.16797-0.29687 0.042969-0.58984 0.10156-0.61719 0.22266-0.25391-0.18359-0.57812-1.3672-0.75-2-0.46094-1.6914-1.0938-4-3.2422-5.2656-0.70703-0.41406-1.8594-0.83594-5.1172-0.83594-0.17969 0-18.027 0.0625-19.555 5.4805-0.51953 1.8438-0.25781 3.5859-0.027343 5.1133 0.15234 1.0469 0.30078 2.0312 0.11719 2.7812-0.15234 0.56641-1.2539 2.1797-1.9805 3.2383-1.9375 2.8398-3.7695 5.5156-3.2812 8.0352 0.57812 2.8281 4.1172 5.6992 10.852 10.953 3.7695 2.9336 10.586 8.25 11.66 10.629-0.27344 0.11719-0.62109 0.25781-0.88672 0.35937-1.4961 0.58203-3.9922 1.5469-4.3398 4.3359-0.49219 3.9766 3.4141 7.1016 6.8711 9.8633 0.90625 0.72656 2.1406 1.7148 2.918 2.3633-3.5781 3.1094-3.5781 3.1211-3.5508 4.0078-0.44141 3.1641 1.4688 6.1055 3.3086 8.9414 1.1094 1.7188 2.375 3.6562 2.4805 4.457-0.074219 0.16406-0.39063 0.57813-0.60938 0.84375-0.82812 1.0469-2.3867 2.9961-1.3945 5.4336 1.418 3.4375 4.7812 5.6836 8.043 7.8516 2.0664 1.3789 4.1875 2.793 5.3047 4.2578l0.35937 2.3672c-0.15625 0-0.32422 0.003906-0.49219 0.003906l-7.1289-0.066406c-5.5117 0-11.094 0.26953-14.789 2.3359-0.40234 0.26953-0.40234 0.26953-3.0508 3.5234-0.95703 1.1719-1.9805 2.4375-2.6367 3.2188-0.11719-0.027344-0.25391-0.054688-0.36328-0.085938-0.59375-0.13281-1.1992-0.26172-1.7344-0.29297l-7.3789-0.54688c-0.3125-0.023437-0.62109-0.085937-0.93359-0.14062-1.2812-0.24219-2.5977-0.33984-3.668-0.039063-1.5273 0.42188-2.3203 1.5664-3.0078 2.5703-0.88672 0.94141-1.3906 1.4297-1.6172 1.6523-0.8125 0.80078-1.2266 2.1719-0.79688 3.2266 0.36328 0.90234 1.1758 1.5352 2.1172 1.7031-0.16406 0.17188-0.33594 0.35938-0.51562 0.55469-6.1445 6.6094-12.809 13.961-14.156 17.652-0.48047 1.3164-0.40234 2.5742-0.34766 3.5898 0.015626 0.32031 0.039063 0.63672 0.035157 0.91406l-0.32422 6.9883c-0.34766 1.082-1.1875 2.5195-1.9922 3.9141-2.1055 3.6172-4.7266 8.1211-2.6875 12.473 0.86719 1.8594 2.2578 3.9531 3.7344 6.1758 3.2773 4.9336 7.3477 11.078 5.3828 14.547l-2.5039 4.3672c-3.6562-0.078125-6.625-4.1094-9.7617-8.3789-3.3555-4.5586-6.8203-9.2773-12.074-10.449-1.0703-0.24219-2.1445-0.35938-3.1797-0.35938-4.6328 0-7.9648 2.3242-10.902 4.375-2.0664 1.4453-3.8516 2.6836-5.7578 2.9961-0.60937-0.003906-2.3594-1.2773-3.2969-1.9609-2.0508-1.4961-4.168-3.0391-6.8438-3.0391h-0.011719c-5.4531 0.22266-8.9375 5.0508-12.012 9.3125-1.6289 2.2617-3.8594 5.3594-5.293 5.3594h-0.011719c-2.2695-0.4375-3.6797-5.2461-4.9297-9.4883-1.625-5.5391-3.3086-11.266-7.8125-13.629-1.0586-0.56641-2.2578-0.84375-3.5625-0.84375-8.7734 0-21.074 13.5-22.227 19.32-0.054687 0.33984-0.066406 0.40234 0.13281 2.2734-0.78516-0.79688-1.0859-1.9766-1.5078-3.793-0.51953-2.2891-1.1719-5.1445-3.8125-7.043-1.7734-1.2812-3.5859-1.9375-5.375-1.9375-3.332 0-5.7188 2.1719-7.6445 3.9102-1.0234 0.92578-2.2891 2.0781-2.9219 2.1289-1.1719-0.48828-2.6484-5.2031-3.1367-6.7461-0.70703-2.2461-1.0938-3.4844-2.0234-4.2969-0.51562-0.44141-1.5117-0.81641-2.1914-0.81641-2.5469 0-4.5469 2.5977-8.5 8.5195-0.78516 1.1797-1.4219 2.1797-1.4062 2.2734-1.6914 1.0547-3.5352-0.15625-5.582-1.4062-2.2891-1.3906-4.8438-2.793-7.5664-2.2461-4.8672 1.0547-4.9609 6.1562-5.0195 9.5312-0.027344 1.4453-0.054687 3.0195-0.35156 4.082l-0.93359-0.59375c0.089843-0.32031 0.19531-0.67188 0.28516-0.96875 0.76562-2.543 1.9336-6.3828-0.25391-9.3281-2.1992-2.9609-6.6094-3.707-14.129-2.3242-1.2695 0.23438-2.6094 1.0742-4.4688 2.2344-1.793 1.125-4.4141 2.7617-6.1875 3.0859 0.83594-1.4062 2.2188-3.8867 0.49219-6.2031-1.4453-1.8594-4.3281-1.457-6.2422-0.59766 0.027344-0.32031 0.11328-0.74609 0.24609-1.332 0.3125-1.3672 0.78906-3.4336-0.57031-5.2188-1.4219-1.8633-3.9805-2.207-6.5117-2.3008-2.2617 0-4.3359 0.73438-6.3398 1.4453-1.6289 0.58203-3.1211 0.93359-4.6797 1.1094-4.8086-0.20703-41.391-5.75-44.363-6.8984-0.17969-0.12891-0.54297-0.71094-0.78516-1.0938-0.75-1.1992-1.7812-2.8438-3.8594-3.4219-5.332-1.457-12.953-0.41406-19.992 0.8125-4.2344 0.73828-8.2383 1.4375-11.703 1.4375l-0.79688-0.015626c-2.7344-0.10547-5.6953-0.8125-8.8242-1.5508-4.3164-1.0312-8.8711-2.082-13.137-1.6367-5.2305 0.55469-10.188 2.8789-14.98 5.1289-3.7969 1.7812-7.3867 3.4648-10.938 4.2461-1.8438 0.39063-4.8047 0.32422-7.7383 0.15625-1.5078-0.085937-3.0195-0.16406-4.4844-0.16406-3.2148 0-5.6523 0.40234-7.6562 1.2773-2.5586 1.0977-4.75 4.7266-8.7188 11.582-3.7695 6.5117-10.086 17.422-14.488 17.422-0.34766-0.10547-1.3047-0.79688-2.0117-1.293-2.4961-1.7852-6.2734-4.4922-11.523-4.4922-1.1094 0-2.2461 0.11719-3.375 0.35938-2.7422 0.58984-4.543 1.7422-5.4883 3.5039-0.09375 0.17188-0.17969 0.34766-0.25391 0.53125-0.10547-3.1094 1.1758-5.4375 2.7031-8.2227 1.0195-1.8555 2.0781-3.7734 2.7734-6.0586 1.5664-5.1875 0.93359-27.016-3.9492-32.09-0.35156-0.35938-0.91406-0.82422-1.6289-1.3477-4.1211-3.0234-14.223-8.625-17.496-9.4531-0.54688-0.14453-1.125-0.11719-1.6523 0.085938l-3.1875 1.1641c-0.074218-0.12891-0.13281-0.28125-0.17969-0.44922-0.36328-1.293 0.15234-3.2188 0.85547-4.4648l1.3008-2.3008c5.1133-9.0898 9.1523-16.262 17.695-22.113 1.4375-0.98047 3.7969-2.0625 6.2891-3.207 6.2227-2.8555 13.273-6.0977 15.199-11.492 4.9727-14.043-7.0039-47.438-17.578-76.895-4.4336-12.355-8.6641-24.141-10.926-32.652 2.3398 0.39844 5.6445 0.68359 10.355 0.68359 6.3047 0 16.98-0.66016 20.547-2.4805 1.4102-0.72266 2.0508-1.9922 2.4766-2.8438 0.027344-0.054687 0.054688-0.11719 0.085938-0.17188 0.75781 0.23047 1.9922 1.5469 2.918 2.5352 2.0273 2.168 4.5547 4.8672 8.3281 4.8594 0.94531 0 1.9102-0.17187 2.8633-0.52734 3.1406-1.1523 5.1562-4 7.1055-6.7461 1.4336-2.0234 2.918-4.1172 4.3164-4.6641 0.20703 0 0.60547 0.09375 0.96484 0.16797 0.53906 0.11719 1.082 0.23438 1.6367 0.28125l3.7617 0.30078c0.25781 0.015626 0.51953 0.10547 0.78906 0.17188 1.2695 0.33984 3.2422 0.57031 4.6602-0.32422 4.2344-2.6875 1.8633-7.8164 0.45312-10.887-0.29297-0.62891-0.67578-1.4766-0.91406-2.1055 1.4688-0.4375 4.6328-0.47656 6.4688-0.50391 3.3164-0.042969 6.4453-0.089844 8.5898-1.1406 4.7148-2.3242 5.1875-6.7148 5.4922-9.6211 0.16406-1.5352 0.32031-2.9844 1.2891-3.6016 0.53125 0 1.0938 0.089844 1.6562 0.16797 0.82812 0.11719 1.6367 0.22266 2.957 0.20703 2.3867-0.16406 4.1992-1.5859 5.6523-2.7227 0.58203-0.46094 1.4727-1.1523 1.5781-1.2539 1.3164 0.67578 1.3438 3.2383 1.2383 6.5078-0.10156 3.1641-0.19531 6.1562 1.7344 8.1484 0.6875 0.71094 1.9258 1.5586 3.9297 1.5586 2.2188 0 5.1289-1.0586 9.1523-3.332 0.22266-0.125 0.48047-0.21094 0.73828-0.30859 1.0039-0.375 2.5195-0.94141 3.4062-2.4805 2.082-3.5508 2.5469-6.8359 1.3828-9.7812-2.2227-5.6016-9.6055-7.7578-14.012-9.043-0.42969-0.125-0.82422-0.23437-1.1641-0.33594 0.066406-3.7812 2.5352-6.9258 5.1367-10.23 2.3789-3.0312 4.8438-6.1602 5.3438-9.918 0.37891-2.8555-0.72266-6.332-1.8945-10.02-0.99219-3.125-2.3516-7.4023-1.6055-8.8711 5.4492-10.879 8.9258-11.777 12.605-12.719 2.7422-0.69922 5.8594-1.5 9.3281-5.207 2.1016-2.2617 2.582-5.7852 3.0508-9.1914 0.32031-2.3281 0.76172-5.5156 1.7461-6.2773 0.12891-0.10156 0.55859-0.33594 1.7266-0.33594 1.5586 0 3.6172 0.41406 5.6055 0.81641 4.4414 0.90234 9.0391 1.4336 11.676-0.41016 2.0625-1.457 2.207-4.3359 2.3398-7.125 0.039062-0.76562 0.09375-1.9492 0.17188-2.5547 1.9023-1.0352 5.7617-3.2383 6.3906-4.3672 1.1523-2.3867 0.61719-4.1289-0.035156-5.1641-2.0938-3.3438-7.8008-3.3672-13.836-3.3828-1.6172-0.003906-3.8477-0.011719-5.2266-0.15625 0.47656-3.4766 1.832-6.668 3.2461-10.031 2.1328-5.0625 4.3359-10.277 3.5938-16.438 0.35937-0.10156 0.69531-0.23047 1.0312-0.35938l-1.0469-2.5977 1.5977 2.3867c0.38672-0.14453 0.77344-0.29688 1.1641-0.48047 0.35938-0.17187 0.69922-0.37109 1.2305-0.67578 0.40234-0.23047 0.78906-0.46484 1.1875-0.72656 0.30078-0.20703 0.59766-0.42578 1.1992-0.87891l2.7422-2.4531c0.003906-0.003907 0.46484-0.46875 0.46484-0.47656l1.3828-1.5117c0.94141-1.0625 1.8477-2.1602 2.7344-3.2383l1.5664-1.875c0.37109-0.44141 0.74609-0.875 1.125-1.293l-2.0703-1.8828 2.6094 1.3203c0.28516-0.30078 0.57031-0.59375 0.86719-0.875l-1.9219-2.0391 2.4648 1.5508c0.27344-0.23047 0.54688-0.45312 0.80469-0.63672l0.51953-0.375c0.28516-0.17188 0.57812-0.33203 1.3008-0.69531 0.29688-0.11328 0.58984-0.19141 1.3438-0.375 0.28516-0.042969 0.57813-0.074219 1.0703-0.11328 0.4375 0.19531 1.5195 1.2891 2.1602 1.9375 1.7461 1.7656 3.5508 3.5938 6.0156 3.5938h0.027344c1.5391 0 1.7539-0.33594 3.7969-3.5352 0.30859-0.47656 0.61719-0.96875 0.89062-1.3945 0.23047 0.050781 0.47656 0.11719 0.71875 0.18359 0.64453 0.17188 1.2891 0.33984 1.9219 0.42188l4.5312 0.59766c0.33984 0.042969 0.69922 0.17969 1.0547 0.30078 1.5273 0.50781 3.8906 0.78516 5.1797-0.023437 1.0859-0.58203 1.0859-0.58203 2.9961-6.1719 1.6289-4.7773 5.0117-14.707 6.6094-17 0.4375-0.63281 0.96484-1.2227 1.4766-1.7461l0.55469-0.49219c0.011719-0.011719 0.42578-0.375 0.4375-0.38672 0.3125-0.28125 0.62109-0.56641 0.97266-0.83594 0.41406-0.32031 0.83594-0.63281 1.6055-1.1797l0.64453-0.45312c0.99609-0.67188 2.0156-1.3281 3.0352-1.9883l3.2773-2.1602c0.59375-0.41406 1.1602-0.83594 2.1289-1.5742l0.57031-0.44922c0.042968-0.039063 0.09375-0.078125 0.14062-0.11719 4.0664 4.3359 7.3789 6.2773 10.652 6.2773 3.1133 0 5.3047-1.8242 7.0625-3.2891 3.0117-2.5039 4.5234-2.8516 8.0625-0.17188 0.45313 0.42188 1.2031 2.3125 1.6953 3.5664 1.3984 3.5547 3.3203 8.4297 7.8633 8.4297 0.15625 0 0.875-0.0625 1.0352-0.089844 4.0469-0.70703 7.0742-2.8242 9.9961-4.8711 3.2305-2.2617 6.0273-4.2188 9.9531-4.2188 3.2031 0 6.9258 1.3047 11.363 3.9922-0.074218 0.5-0.17187 1.1094-0.28516 1.7969-0.86719 5.3984-2.3125 14.441 2.0273 19.602 1.9531 2.3242 4.7422 3.5234 8.3203 3.5664 2.4141 0 4.918-2.3008 12.906-10.809 2.832-3.0117 5.7617-6.125 7.4258-7.4688 0.62109-0.5 3.1133-0.21094 5.2969 0.18359 2.1953 0.40234 4.5234 0.75 6.2383 0.30859 1.793-0.45312 2.9336-1.7539 3.7695-2.7031 0.30078-0.33984 0.76172-0.86328 0.84375-0.92969 6.3008-0.80078 14.773 6.9609 20.848 12.551 1.8828 1.7305 3.6016 3.3086 5.0664 4.4922 2.1719 1.7578 5.7461 1.8984 9.2852 1.4766 1.043-0.12891 2.2578-0.24219 2.7266-0.19141 2.8672 5.2344 0.20703 14.293-1.5625 20.324-1.3789 4.6875-2.0664 7.0391-1.0234 8.8984 1.5898 2.8438 3.9766 5.332 6.4961 7.9648 2.8672 2.9922 5.8203 6.0703 7.2852 9.5312-0.20703 0.011719-0.46484 0.027344-0.53125 0.039063-1.8047 0.24609-4.2852 0.58203-4.9062 2.832-0.57812 2.0547 1.0469 3.3594 1.8125 3.9883 0.3125 0.24609 0.87891 0.70703 1.082 0.60547l-0.50781 0.63281c-5.0508 6.2227-10.344 14.012-6.3164 19.074 1.9219 2.4258 5.0977 3.4609 8.1719 4.4531 2.2617 0.73438 4.8281 1.5664 5.4219 2.3477 0.011718 0.13281-0.027344 0.52734-0.054688 0.78516-0.089844 0.85547-0.23438 2.2773 0.44141 3.5664 0.15234 1.6133 1.25 1.8203 8.8555 2.0391-0.33984 0.71094-0.72266 1.4688-1.043 2.0898-1.6172 3.1797-2.6055 5.2461-2.6758 7.1016-0.050781 1.8984 0.93359 2.8906 1.5234 3.3086 1.5234 1.0938 3.375 1.4219 5.0078 1.7188 1.3594 0.24219 2.7734 0.5 3.1914 1.0742 1.4961 2.0547 2.3633 4.9961 3.2891 8.1094 1.1797 4 2.4062 8.1328 5.2031 11.156 4.2109 4.543 10.695 5.6406 16.426 6.6094 3.457 0.58984 6.7383 1.1406 9.1914 2.3281l2.1016 3.5938c0.90234 1.5391 3.2188 1.6016 4.4258 0.78906-0.054688 1.8203-0.71094 4.7812-1.1133 6.5977-1.3555 6.1094-3.0508 13.715 2.9727 16.367 3.5273 1.5469 8.8047 0.46094 13.754-0.85156 3.8359-1.0117 7.668-2.0898 10.477-1.3281 0.57031 0.46094 1.7266 1.3984 2.8672 2.3281 3.6016 2.9297 3.6016 2.9297 4.1992 3.0977 1.707 0.47656 3.457-0.66797 4.6641-1.625 0.14063-0.11719 0.32422-0.25781 0.49219-0.37891 0.027344 0.011719 0.054688 0.015625 0.074219 0.015625-0.054688 0.49219-0.46094 1.5391-0.73828 2.2578-1.25 3.1992-3.5625 9.1602 3.6406 13.625 2.1211 1.3086 4.9219 1.9258 7.6289 2.5156 2.4688 0.53906 5.2539 1.1406 6.5977 2.1914 0.45312 1.5273 1.1367 5.957 1.2773 7.8555-0.82031 0.51563-2.6836 1.1211-3.8711 1.5156z"/>
 </g>
</svg>
